<mxfile host="app.diagrams.net" modified="2022-07-24T11:00:06.464Z" agent="5.0 (Windows NT 10.0; Win64; x64) AppleWebKit/537.36 (KHTML, like Gecko) Chrome/103.0.0.0 Safari/537.36" etag="GO2DJdc0qOBq_WXcGDD4" version="20.2.0" type="github">
  <diagram id="OUjPSAZCEP9kvnzT8qP-" name="Page-1">
    <mxGraphModel dx="1038" dy="571" grid="1" gridSize="10" guides="1" tooltips="1" connect="1" arrows="1" fold="1" page="1" pageScale="1" pageWidth="850" pageHeight="1100" math="0" shadow="0">
      <root>
        <mxCell id="0" />
        <mxCell id="1" parent="0" />
        <mxCell id="p3si5DOTHipla9LxTqFH-1" value="Login Module" style="swimlane;" vertex="1" parent="1">
          <mxGeometry x="30" y="20" width="350" height="340" as="geometry">
            <mxRectangle x="30" y="20" width="100" height="30" as="alternateBounds" />
          </mxGeometry>
        </mxCell>
        <mxCell id="p3si5DOTHipla9LxTqFH-2" value="" style="swimlane;" vertex="1" parent="1">
          <mxGeometry x="400" y="20" width="360" height="340" as="geometry" />
        </mxCell>
      </root>
    </mxGraphModel>
  </diagram>
</mxfile>
